<svg width="14" height="16" viewBox="0 0 14 16" fill="none" xmlns="http://www.w3.org/2000/svg">
<path d="M8.09694 15.8363C10.6713 15.3212 14 13.4708 14 8.68638C14 4.3331 10.8105 1.43365 8.51694 0.101583C8.00718 -0.194615 7.41176 0.194556 7.41176 0.782838V2.28686C7.41176 3.4733 6.9127 5.63884 5.52588 6.53977C4.81765 6.9997 4.05176 6.31104 3.96612 5.47181L3.89529 4.78233C3.81294 3.98095 2.996 3.49469 2.35529 3.98342C1.20318 4.85967 0 6.39825 0 8.68556C0 14.5363 4.35565 16 6.53306 16C6.65988 16 6.79329 15.9951 6.93165 15.9877C5.85612 15.8963 4.11765 15.2299 4.11765 13.0742C4.11765 11.3875 5.34882 10.248 6.28435 9.69263C6.53635 9.54453 6.83035 9.73788 6.83035 10.03V10.5154C6.83035 10.8857 6.97447 11.4657 7.31623 11.8623C7.70329 12.3115 8.27071 11.8409 8.316 11.2501C8.33082 11.0642 8.51859 10.9457 8.68 11.0395C9.20788 11.348 9.88235 12.0063 9.88235 13.0742C9.88235 14.7593 8.95259 15.5343 8.09694 15.8363Z" fill="#FF8A00"/>
</svg>
