<svg width="16" height="16" viewBox="0 0 16 16" fill="none" xmlns="http://www.w3.org/2000/svg">
<path d="M5.89502 6.73639C7.75544 6.73639 9.26361 5.22823 9.26361 3.3678C9.26361 1.50738 7.75544 -0.000785828 5.89502 -0.000785828C4.0346 -0.000785828 2.52643 1.50738 2.52643 3.3678C2.52643 5.22823 4.0346 6.73639 5.89502 6.73639Z" fill="#00FF8C"/>
<path d="M5.89503 16.0009C9.15077 16.0009 11.7901 14.4927 11.7901 12.6323C11.7901 10.7718 9.15077 9.26367 5.89503 9.26367C2.6393 9.26367 0 10.7718 0 12.6323C0 14.4927 2.6393 16.0009 5.89503 16.0009Z" fill="#00FF8C"/>
<path d="M16 12.6314C16 14.0269 14.2854 15.1579 12.1927 15.1579C12.8091 14.4841 13.2336 13.6378 13.2336 12.6331C13.2336 11.6267 12.8083 10.7804 12.1901 10.1058C14.2837 10.105 16 11.2368 16 12.6314ZM13.4736 3.3678C13.4738 3.77432 13.376 4.1749 13.1884 4.53553C13.0008 4.89616 12.7289 5.20619 12.3959 5.4393C12.0628 5.6724 11.6784 5.8217 11.2754 5.87451C10.8723 5.92732 10.4624 5.88209 10.0806 5.74266C10.492 5.01887 10.7076 4.20034 10.7063 3.3678C10.7063 2.5046 10.4789 1.69445 10.0814 0.993787C10.4632 0.854522 10.873 0.809423 11.276 0.862317C11.6789 0.915212 12.0632 1.06454 12.3961 1.29763C12.729 1.53071 13.0008 1.84068 13.1884 2.20122C13.376 2.56176 13.4738 2.96139 13.4736 3.3678Z" fill="#00FF8C"/>
</svg>
