<svg width="14" height="16" viewBox="0 0 14 16" fill="none" xmlns="http://www.w3.org/2000/svg">
<path fill-rule="evenodd" clip-rule="evenodd" d="M8.48482 2.66641C8.48482 1.19441 9.72012 7.68137e-06 11.242 7.68137e-06C11.6033 -0.000833785 11.9613 0.0674673 12.2954 0.201011C12.6296 0.334555 12.9334 0.530726 13.1895 0.778324C13.4456 1.02592 13.649 1.3201 13.788 1.64406C13.9271 1.96801 13.9991 2.31541 14 2.66641C14 4.1392 12.7647 5.3336 11.242 5.3336C10.8768 5.33404 10.5152 5.26397 10.1782 5.12745C9.84114 4.99094 9.53539 4.79071 9.27871 4.5384L5.46165 7.0632C5.56795 7.5776 5.51582 8.11103 5.31176 8.5968L9.49694 11.2688C9.98988 10.8783 10.6067 10.6654 11.2428 10.6664C11.6041 10.6657 11.9621 10.7341 12.2962 10.8677C12.6303 11.0013 12.934 11.1976 13.1901 11.4453C13.4461 11.693 13.6494 11.9872 13.7884 12.3112C13.9273 12.6352 13.9992 12.9826 14 13.3336C14 14.8056 12.7647 16 11.242 16C10.5124 16.0015 9.81211 15.7214 9.29506 15.2214C8.77801 14.7214 8.48657 14.0423 8.48482 13.3336C8.48419 12.9597 8.56531 12.5899 8.72282 12.2488L4.57059 9.6C4.06775 10.0247 3.42351 10.2581 2.75718 10.2568C2.39583 10.2576 2.03784 10.1893 1.70369 10.0557C1.36953 9.9221 1.06575 9.72584 0.809704 9.47815C0.553654 9.23046 0.350355 8.93618 0.211423 8.61214C0.0724907 8.28809 0.000648097 7.94063 0 7.5896C0.000756141 7.23864 0.0726786 6.89126 0.211659 6.56731C0.35064 6.24336 0.553956 5.94918 0.809994 5.70157C1.06603 5.45396 1.36978 5.25778 1.70388 5.12422C2.03798 4.99067 2.39589 4.92236 2.75718 4.9232C3.63341 4.9232 4.41247 5.3176 4.91729 5.932L8.61741 3.4848C8.52938 3.22043 8.48464 2.94427 8.48482 2.66641Z" fill="#00D1FF"/>
</svg>
