<svg width="36" height="36" viewBox="0 0 36 36" fill="none" xmlns="http://www.w3.org/2000/svg">
<path fill-rule="evenodd" clip-rule="evenodd" d="M9.54667 0H26.4533C28.5138 0 29.5431 1.87751e-07 30.3751 0.293394C31.1596 0.574886 31.8694 1.03572 32.4493 1.64009C33.0293 2.24446 33.4638 2.97609 33.7191 3.77812C34 4.6457 34 5.71848 34 7.86583V33.0725C34 34.6168 32.2489 35.4376 31.1413 34.4116C30.8306 34.1209 30.4231 33.9595 30 33.9595C29.5769 33.9595 29.1694 34.1209 28.8587 34.4116L28 35.2072C27.4556 35.7169 26.7414 36 26 36C25.2586 36 24.5444 35.7169 24 35.2072C23.4556 34.6976 22.7414 34.4145 22 34.4145C21.2586 34.4145 20.5444 34.6976 20 35.2072C19.4556 35.7169 18.7414 36 18 36C17.2586 36 16.5444 35.7169 16 35.2072C15.4556 34.6976 14.7414 34.4145 14 34.4145C13.2586 34.4145 12.5444 34.6976 12 35.2072C11.4556 35.7169 10.7414 36 10 36C9.25855 36 8.54437 35.7169 8 35.2072L7.14133 34.4116C6.8306 34.1209 6.42307 33.9595 6 33.9595C5.57693 33.9595 5.1694 34.1209 4.85867 34.4116C3.75111 35.4376 2 34.6168 2 33.0725V7.86583C2 5.71848 2 4.6439 2.28089 3.77992C2.81422 2.13655 4.04978 0.847782 5.62489 0.293394C6.45689 1.87751e-07 7.48622 0 9.54667 0ZM9.11111 8.54981C8.75749 8.54981 8.41835 8.69204 8.1683 8.94521C7.91825 9.19838 7.77778 9.54175 7.77778 9.89978C7.77778 10.2578 7.91825 10.6012 8.1683 10.8544C8.41835 11.1075 8.75749 11.2498 9.11111 11.2498H10C10.3536 11.2498 10.6928 11.1075 10.9428 10.8544C11.1929 10.6012 11.3333 10.2578 11.3333 9.89978C11.3333 9.54175 11.1929 9.19838 10.9428 8.94521C10.6928 8.69204 10.3536 8.54981 10 8.54981H9.11111ZM15.3333 8.54981C14.9797 8.54981 14.6406 8.69204 14.3905 8.94521C14.1405 9.19838 14 9.54175 14 9.89978C14 10.2578 14.1405 10.6012 14.3905 10.8544C14.6406 11.1075 14.9797 11.2498 15.3333 11.2498H26.8889C27.2425 11.2498 27.5816 11.1075 27.8317 10.8544C28.0817 10.6012 28.2222 10.2578 28.2222 9.89978C28.2222 9.54175 28.0817 9.19838 27.8317 8.94521C27.5816 8.69204 27.2425 8.54981 26.8889 8.54981H15.3333ZM9.11111 14.8497C8.75749 14.8497 8.41835 14.9919 8.1683 15.2451C7.91825 15.4982 7.77778 15.8416 7.77778 16.1996C7.77778 16.5577 7.91825 16.9011 8.1683 17.1542C8.41835 17.4074 8.75749 17.5496 9.11111 17.5496H10C10.3536 17.5496 10.6928 17.4074 10.9428 17.1542C11.1929 16.9011 11.3333 16.5577 11.3333 16.1996C11.3333 15.8416 11.1929 15.4982 10.9428 15.2451C10.6928 14.9919 10.3536 14.8497 10 14.8497H9.11111ZM15.3333 14.8497C14.9797 14.8497 14.6406 14.9919 14.3905 15.2451C14.1405 15.4982 14 15.8416 14 16.1996C14 16.5577 14.1405 16.9011 14.3905 17.1542C14.6406 17.4074 14.9797 17.5496 15.3333 17.5496H26.8889C27.2425 17.5496 27.5816 17.4074 27.8317 17.1542C28.0817 16.9011 28.2222 16.5577 28.2222 16.1996C28.2222 15.8416 28.0817 15.4982 27.8317 15.2451C27.5816 14.9919 27.2425 14.8497 26.8889 14.8497H15.3333ZM9.11111 21.1495C8.75749 21.1495 8.41835 21.2918 8.1683 21.5449C7.91825 21.7981 7.77778 22.1415 7.77778 22.4995C7.77778 22.8575 7.91825 23.2009 8.1683 23.4541C8.41835 23.7073 8.75749 23.8495 9.11111 23.8495H10C10.3536 23.8495 10.6928 23.7073 10.9428 23.4541C11.1929 23.2009 11.3333 22.8575 11.3333 22.4995C11.3333 22.1415 11.1929 21.7981 10.9428 21.5449C10.6928 21.2918 10.3536 21.1495 10 21.1495H9.11111ZM15.3333 21.1495C14.9797 21.1495 14.6406 21.2918 14.3905 21.5449C14.1405 21.7981 14 22.1415 14 22.4995C14 22.8575 14.1405 23.2009 14.3905 23.4541C14.6406 23.7073 14.9797 23.8495 15.3333 23.8495H26.8889C27.2425 23.8495 27.5816 23.7073 27.8317 23.4541C28.0817 23.2009 28.2222 22.8575 28.2222 22.4995C28.2222 22.1415 28.0817 21.7981 27.8317 21.5449C27.5816 21.2918 27.2425 21.1495 26.8889 21.1495H15.3333Z" fill="#00FF91"/>
</svg>
