<svg width="36" height="36" viewBox="0 0 36 36" fill="none" xmlns="http://www.w3.org/2000/svg">
<path fill-rule="evenodd" clip-rule="evenodd" d="M2.6352 2.6352C0 5.274 0 9.5148 0 18C0 26.4852 0 30.7278 2.6352 33.363C5.274 36 9.5148 36 18 36C26.4852 36 30.7278 36 33.363 33.363C36 30.7296 36 26.4852 36 18C36 9.5148 36 5.2722 33.363 2.6352C30.7296 0 26.4852 0 18 0C9.5148 0 5.2722 0 2.6352 2.6352ZM21.15 14.4C21.15 15.1452 21.7548 15.75 22.5 15.75H23.742L20.1186 19.3734C20.0768 19.4153 20.0271 19.4486 19.9725 19.4712C19.9178 19.4939 19.8592 19.5056 19.8 19.5056C19.7408 19.5056 19.6822 19.4939 19.6275 19.4712C19.5729 19.4486 19.5232 19.4153 19.4814 19.3734L16.6266 16.5186C16.0359 15.9283 15.235 15.5968 14.4 15.5968C13.565 15.5968 12.7641 15.9283 12.1734 16.5186L8.046 20.646C7.91336 20.7696 7.80698 20.9186 7.73319 21.0842C7.65941 21.2498 7.61973 21.4286 7.61654 21.6099C7.61334 21.7911 7.64668 21.9712 7.71458 22.1393C7.78248 22.3074 7.88354 22.4601 8.01173 22.5883C8.13992 22.7165 8.29263 22.8175 8.46072 22.8854C8.62882 22.9533 8.80888 22.9867 8.99014 22.9835C9.17141 22.9803 9.35017 22.9406 9.51577 22.8668C9.68137 22.793 9.83041 22.6866 9.954 22.554L14.0814 18.4266C14.1232 18.3847 14.1729 18.3514 14.2275 18.3288C14.2822 18.3061 14.3408 18.2944 14.4 18.2944C14.4592 18.2944 14.5178 18.3061 14.5725 18.3288C14.6271 18.3514 14.6768 18.3847 14.7186 18.4266L17.5734 21.2814C18.1641 21.8717 18.965 22.2032 19.8 22.2032C20.635 22.2032 21.4359 21.8717 22.0266 21.2814L25.65 17.6598V18.9C25.65 19.258 25.7922 19.6014 26.0454 19.8546C26.2986 20.1078 26.642 20.25 27 20.25C27.358 20.25 27.7014 20.1078 27.9546 19.8546C28.2078 19.6014 28.35 19.258 28.35 18.9V14.4C28.35 14.042 28.2078 13.6986 27.9546 13.4454C27.7014 13.1922 27.358 13.05 27 13.05H22.5C22.142 13.05 21.7986 13.1922 21.5454 13.4454C21.2922 13.6986 21.15 14.042 21.15 14.4Z" fill="#C862F8"/>
</svg>
