<svg width="20" height="20" viewBox="0 0 20 20" fill="none" xmlns="http://www.w3.org/2000/svg">
<path fill-rule="evenodd" clip-rule="evenodd" d="M19.1666 10C19.1666 15.0628 15.0627 19.1667 9.99992 19.1667C4.93717 19.1667 0.833252 15.0628 0.833252 10C0.833252 4.93729 4.93717 0.833374 9.99992 0.833374C15.0627 0.833374 19.1666 4.93729 19.1666 10ZM13.6941 7.22254C13.8228 7.35145 13.8951 7.52619 13.8951 7.70837C13.8951 7.89056 13.8228 8.0653 13.6941 8.19421L9.11075 12.7775C8.98184 12.9063 8.80711 12.9786 8.62492 12.9786C8.44273 12.9786 8.26799 12.9063 8.13909 12.7775L6.30575 10.9442C6.23821 10.8813 6.18403 10.8054 6.14645 10.721C6.10888 10.6367 6.08867 10.5457 6.08704 10.4534C6.08541 10.361 6.1024 10.2693 6.13697 10.1837C6.17155 10.0981 6.22302 10.0204 6.2883 9.95509C6.35358 9.88981 6.43135 9.83834 6.51695 9.80376C6.60256 9.76918 6.69425 9.7522 6.78656 9.75383C6.87887 9.75546 6.96991 9.77567 7.05425 9.81324C7.13858 9.85082 7.21448 9.90499 7.27742 9.97254L8.62492 11.32L10.6737 9.27129L12.7224 7.22254C12.8513 7.09379 13.0261 7.02148 13.2083 7.02148C13.3904 7.02148 13.5652 7.09379 13.6941 7.22254Z" fill="#00FF8C"/>
</svg>
