<svg width="24" height="24" viewBox="0 0 24 24" fill="none" xmlns="http://www.w3.org/2000/svg">
<rect x="0.5" y="0.5" width="23" height="23" rx="3.5" fill="#00FF8C" stroke="#00FF91"/>
<path d="M18.5026 7.74749C18.6606 7.90569 18.7494 8.12015 18.7494 8.34374C18.7494 8.56733 18.6606 8.78179 18.5026 8.93999L10.3464 17.0962C10.1882 17.2542 9.97371 17.343 9.75012 17.343C9.52652 17.343 9.31207 17.2542 9.15387 17.0962L5.49762 13.44C5.34839 13.2801 5.2671 13.0685 5.27088 12.8498C5.27466 12.6311 5.36321 12.4224 5.51787 12.2677C5.67253 12.1131 5.88121 12.0245 6.0999 12.0208C6.31859 12.017 6.5302 12.0983 6.69012 12.2475L9.75012 15.3075L17.3101 7.74749C17.4683 7.58948 17.6828 7.50073 17.9064 7.50073C18.13 7.50073 18.3444 7.58948 18.5026 7.74749Z" fill="black"/>
</svg>
