 <svg width="35" height="31" viewBox="0 0 35 31" fill="none" xmlns="http://www.w3.org/2000/svg">
<path fill-rule="evenodd" clip-rule="evenodd" d="M32.2254 9.32948C32.1329 9.32275 32.0304 9.32275 31.9229 9.32275H27.6794C24.204 9.32275 21.2311 12.0587 21.2311 15.6249C21.2311 19.1911 24.2057 21.927 27.6794 21.927H31.9229C32.0304 21.927 32.1329 21.927 32.2287 21.9203C32.943 21.8772 33.6173 21.576 34.1259 21.0726C34.6345 20.5692 34.9428 19.8981 34.9933 19.1843C35 19.0835 35 18.9743 35 18.8734V12.3763C35 12.2755 35 12.1663 34.9933 12.0654C34.9428 11.3516 34.6345 10.6805 34.1259 10.1772C33.6173 9.67383 32.943 9.37254 32.2287 9.32948M27.308 17.3055C28.2021 17.3055 28.9264 16.5526 28.9264 15.6249C28.9264 14.6972 28.2021 13.9443 27.308 13.9443C26.4123 13.9443 25.6879 14.6972 25.6879 15.6249C25.6879 16.5526 26.4123 17.3055 27.308 17.3055Z" fill="#00FF91"/>
<path fill-rule="evenodd" clip-rule="evenodd" d="M31.9195 24.4479C31.9776 24.4456 32.0354 24.457 32.0883 24.4812C32.1411 24.5054 32.1876 24.5417 32.2237 24.5872C32.2599 24.6328 32.2849 24.6862 32.2965 24.7431C32.3082 24.8001 32.3063 24.859 32.2909 24.9151C31.9548 26.1117 31.4187 27.1334 30.5599 27.9905C29.3012 29.251 27.7063 29.8072 25.7367 30.0728C23.8208 30.3299 21.3756 30.3299 18.2867 30.3299H14.7373C11.6485 30.3299 9.20154 30.3299 7.28737 30.0728C5.31775 29.8072 3.72288 29.2493 2.46414 27.9922C1.20707 26.7335 0.649122 25.1386 0.383592 23.169C0.126465 21.2531 0.126465 18.8079 0.126465 15.719V15.5308C0.126465 12.4419 0.126465 9.995 0.383592 8.07915C0.649122 6.10952 1.20707 4.51466 2.46414 3.25591C3.72288 1.99885 5.31775 1.4409 7.28737 1.17537C9.20322 0.919922 11.6485 0.919922 14.7373 0.919922H18.2867C21.3756 0.919922 23.8225 0.919922 25.7367 1.17705C27.7063 1.44258 29.3012 2.00053 30.5599 3.25759C31.4187 4.11805 31.9548 5.13815 32.2909 6.33472C32.3063 6.39079 32.3082 6.44971 32.2965 6.50667C32.2849 6.56364 32.2599 6.61705 32.2237 6.66256C32.1876 6.70808 32.1411 6.74442 32.0883 6.76863C32.0354 6.79285 31.9776 6.80425 31.9195 6.80192H27.6777C22.9099 6.80192 18.7085 10.5664 18.7085 15.6249C18.7085 20.6834 22.9099 24.4479 27.6777 24.4479H31.9195ZM8.52931 21.927C8.19503 21.927 7.87443 21.7942 7.63806 21.5579C7.40168 21.3215 7.26889 21.0009 7.26889 20.6666V10.5832C7.26889 10.2489 7.40168 9.92832 7.63806 9.69194C7.87443 9.45557 8.19503 9.32277 8.52931 9.32277C8.8636 9.32277 9.18419 9.45557 9.42057 9.69194C9.65695 9.92832 9.78974 10.2489 9.78974 10.5832V20.6666C9.78974 21.0009 9.65695 21.3215 9.42057 21.5579C9.18419 21.7942 8.8636 21.927 8.52931 21.927Z" fill="#00FF91"/>
</svg>
