<svg width="31" height="31" viewBox="0 0 31 31" fill="none" xmlns="http://www.w3.org/2000/svg">
<path d="M15.0001 17.5938C15.2087 17.5939 15.4127 17.6555 15.5866 17.7708C15.7605 17.8862 15.8966 18.0502 15.9779 18.2424C16.0592 18.4345 16.0821 18.6464 16.0437 18.8515C16.0054 19.0566 15.9075 19.2459 15.7622 19.3958L10.0956 25.2395C9.99653 25.3415 9.87805 25.4225 9.74714 25.4779C9.61622 25.5332 9.47553 25.5617 9.3334 25.5617C9.19126 25.5617 9.05057 25.5332 8.91965 25.4779C8.78874 25.4225 8.67026 25.3415 8.57123 25.2395L2.90456 19.3958C2.75933 19.2459 2.66143 19.0566 2.62308 18.8515C2.58473 18.6464 2.60763 18.4345 2.68891 18.2424C2.7702 18.0502 2.90627 17.8862 3.08016 17.7708C3.25405 17.6555 3.45806 17.5939 3.66673 17.5938H8.2709V7.5C8.2709 7.21821 8.38284 6.94796 8.58209 6.7487C8.78135 6.54944 9.0516 6.4375 9.3334 6.4375C9.61519 6.4375 9.88544 6.54944 10.0847 6.7487C10.284 6.94796 10.3959 7.21821 10.3959 7.5V17.5938H15.0001Z" fill="white"/>
<path d="M26.3333 14.4063C26.542 14.4061 26.746 14.3445 26.9199 14.2292C27.0938 14.1138 27.2298 13.9498 27.3111 13.7577C27.3924 13.5655 27.4153 13.3536 27.377 13.1485C27.3386 12.9434 27.2407 12.7541 27.0955 12.6043L21.4288 6.76052C21.3298 6.65856 21.2113 6.57751 21.0804 6.52216C20.9495 6.46681 20.8088 6.43829 20.6666 6.43829C20.5245 6.43829 20.3838 6.46681 20.2529 6.52216C20.122 6.57751 20.0035 6.65856 19.9045 6.76052L14.2378 12.6043C14.0926 12.7541 13.9947 12.9434 13.9563 13.1485C13.918 13.3536 13.9409 13.5655 14.0222 13.7577C14.1034 13.9498 14.2395 14.1138 14.4134 14.2292C14.5873 14.3445 14.7913 14.4061 15 14.4063H19.6041V24.5C19.6041 24.7818 19.7161 25.0521 19.9153 25.2513C20.1146 25.4506 20.3849 25.5625 20.6666 25.5625C20.9484 25.5625 21.2187 25.4506 21.4179 25.2513C21.6172 25.0521 21.7291 24.7818 21.7291 24.5V14.4063H26.3333Z" fill="white"/>
</svg>
