<svg width="23" height="23" viewBox="0 0 23 23" fill="none" xmlns="http://www.w3.org/2000/svg">
<path d="M1.08337 11.5C1.08337 6.58956 1.08337 4.13435 2.60837 2.60831C4.13546 1.08331 6.58962 1.08331 11.5 1.08331C16.4105 1.08331 18.8657 1.08331 20.3907 2.60831C21.9167 4.1354 21.9167 6.58956 21.9167 11.5C21.9167 16.4104 21.9167 18.8656 20.3907 20.3906C18.8667 21.9166 16.4105 21.9166 11.5 21.9166C6.58962 21.9166 4.13442 21.9166 2.60837 20.3906C1.08337 18.8666 1.08337 16.4104 1.08337 11.5Z" stroke="black" stroke-width="1.5"/>
<path d="M5.25 15.4583L6.44063 16.7083L9.41667 13.5833M5.25 8.16663L6.44063 9.41663L9.41667 6.29163" stroke="black" stroke-width="1.5" stroke-linecap="round" stroke-linejoin="round"/>
<path d="M12.5417 8.375H17.7501M12.5417 15.6667H17.7501" stroke="black" stroke-width="1.5" stroke-linecap="round"/>
</svg>
