<svg width="30" height="30" viewBox="0 0 30 30" fill="none" xmlns="http://www.w3.org/2000/svg">
<path fill-rule="evenodd" clip-rule="evenodd" d="M6.5625 12.5688V10C6.5625 7.76224 7.45145 5.61613 9.03379 4.03379C10.6161 2.45145 12.7622 1.5625 15 1.5625C17.2378 1.5625 19.3839 2.45145 20.9662 4.03379C22.5486 5.61613 23.4375 7.76224 23.4375 10V12.5688C24.8312 12.6725 25.7375 12.935 26.4013 13.5987C27.5 14.6962 27.5 16.465 27.5 20C27.5 23.535 27.5 25.3038 26.4013 26.4013C25.3038 27.5 23.535 27.5 20 27.5H10C6.465 27.5 4.69625 27.5 3.59875 26.4013C2.5 25.3038 2.5 23.535 2.5 20C2.5 16.465 2.5 14.6962 3.59875 13.5987C4.26125 12.935 5.16875 12.6725 6.5625 12.5688ZM8.4375 10C8.4375 8.25952 9.1289 6.59032 10.3596 5.35961C11.5903 4.1289 13.2595 3.4375 15 3.4375C16.7405 3.4375 18.4097 4.1289 19.6404 5.35961C20.8711 6.59032 21.5625 8.25952 21.5625 10V12.505C21.0837 12.5 20.5637 12.5 20 12.5H10C9.435 12.5 8.91625 12.5 8.4375 12.505V10Z" fill="#00FF8C"/>
</svg>
