<svg width="40" height="44" viewBox="0 0 40 44" fill="none" xmlns="http://www.w3.org/2000/svg">
<path d="M36.22 7.41V18.36L24.97 23.61V38.14L20.01 40.45L15.05 38.14V23.6L3.79999 18.35V7.41L20.01 14.97L36.22 7.41Z" fill="#00FF91"/>
<path d="M36.22 7.41V18.36L24.97 23.61V38.14L20.01 40.45V14.97L36.22 7.41Z" fill="#0BD67A"/>
<path d="M24.19 3.48C24.74 4.3 25.04 5.27 25.04 6.26C25.04 6.92 24.91 7.57 24.65 8.18C24.4 8.79 24.03 9.34 23.56 9.8C22.74 10.62 21.65 11.13 20.5 11.24C19.34 11.35 18.18 11.06 17.21 10.42C16.38 9.87 15.74 9.09 15.36 8.17C14.98 7.25 14.88 6.25 15.08 5.28C15.28 4.31 15.75 3.42 16.45 2.72C17.16 2.02 18.05 1.54 19.03 1.35C20.01 1.16 21.02 1.26 21.94 1.63C22.86 2.01 23.64 2.65 24.2 3.48H24.19Z" fill="#00FF91"/>
</svg>
