<svg width="203" height="44" viewBox="0 0 203 44" fill="none" xmlns="http://www.w3.org/2000/svg">
<path d="M36.22 7.41V18.36L24.97 23.61V38.14L20.01 40.45L15.05 38.14V23.6L3.79999 18.35V7.41L20.01 14.97L36.22 7.41Z" fill="#00FF91"/>
<path d="M36.22 7.41V18.36L24.97 23.61V38.14L20.01 40.45V14.97L36.22 7.41Z" fill="#0BD67A"/>
<path d="M24.19 3.48C24.74 4.3 25.04 5.27 25.04 6.26C25.04 6.92 24.91 7.57 24.65 8.18C24.4 8.79 24.03 9.34 23.56 9.8C22.74 10.62 21.65 11.13 20.5 11.24C19.34 11.35 18.18 11.06 17.21 10.42C16.38 9.87 15.74 9.09 15.36 8.17C14.98 7.25 14.88 6.25 15.08 5.28C15.28 4.31 15.75 3.42 16.45 2.72C17.16 2.02 18.05 1.54 19.03 1.35C20.01 1.16 21.02 1.26 21.94 1.63C22.86 2.01 23.64 2.65 24.2 3.48H24.19Z" fill="#00FF91"/>
<path d="M52.5682 18.892V16.8636H62.125V18.892H58.5625V28.5H56.1307V18.892H52.5682ZM66.331 28.6705C65.4484 28.6705 64.6851 28.483 64.0412 28.108C63.401 27.7292 62.9067 27.2027 62.5582 26.5284C62.2098 25.8504 62.0355 25.0644 62.0355 24.1705C62.0355 23.2689 62.2098 22.4811 62.5582 21.8068C62.9067 21.1288 63.401 20.6023 64.0412 20.2273C64.6851 19.8485 65.4484 19.6591 66.331 19.6591C67.2135 19.6591 67.9749 19.8485 68.6151 20.2273C69.259 20.6023 69.7552 21.1288 70.1037 21.8068C70.4522 22.4811 70.6264 23.2689 70.6264 24.1705C70.6264 25.0644 70.4522 25.8504 70.1037 26.5284C69.7552 27.2027 69.259 27.7292 68.6151 28.108C67.9749 28.483 67.2135 28.6705 66.331 28.6705ZM66.3423 26.7955C66.7438 26.7955 67.0791 26.6818 67.348 26.4545C67.617 26.2235 67.8196 25.9091 67.956 25.5114C68.0961 25.1136 68.1662 24.661 68.1662 24.1534C68.1662 23.6458 68.0961 23.1932 67.956 22.7955C67.8196 22.3977 67.617 22.0833 67.348 21.8523C67.0791 21.6212 66.7438 21.5057 66.3423 21.5057C65.937 21.5057 65.5961 21.6212 65.3196 21.8523C65.0469 22.0833 64.8404 22.3977 64.7003 22.7955C64.5639 23.1932 64.4957 23.6458 64.4957 24.1534C64.4957 24.661 64.5639 25.1136 64.7003 25.5114C64.8404 25.9091 65.0469 26.2235 65.3196 26.4545C65.5961 26.6818 65.937 26.7955 66.3423 26.7955ZM74.3935 25.9886L74.3991 23.0852H74.7514L77.5469 19.7727H80.3253L76.5696 24.1591H75.9957L74.3935 25.9886ZM72.2003 28.5V16.8636H74.6207V28.5H72.2003ZM77.6548 28.5L75.0866 24.6989L76.7003 22.9886L80.4901 28.5H77.6548ZM85.1307 28.6705C84.233 28.6705 83.4602 28.4886 82.8125 28.125C82.1686 27.7576 81.6723 27.2386 81.3239 26.5682C80.9754 25.8939 80.8011 25.0966 80.8011 24.1761C80.8011 23.2784 80.9754 22.4905 81.3239 21.8125C81.6723 21.1345 82.1629 20.6061 82.7955 20.2273C83.4318 19.8485 84.178 19.6591 85.0341 19.6591C85.6098 19.6591 86.1458 19.7519 86.642 19.9375C87.142 20.1193 87.5777 20.3939 87.9489 20.7614C88.3239 21.1288 88.6155 21.5909 88.8239 22.1477C89.0322 22.7008 89.1364 23.3485 89.1364 24.0909V24.7557H81.767V23.2557H86.858C86.858 22.9072 86.7822 22.5985 86.6307 22.3295C86.4792 22.0606 86.2689 21.8504 86 21.6989C85.7348 21.5436 85.4261 21.4659 85.0739 21.4659C84.7064 21.4659 84.3807 21.5511 84.0966 21.7216C83.8163 21.8883 83.5966 22.1136 83.4375 22.3977C83.2784 22.678 83.197 22.9905 83.1932 23.3352V24.7614C83.1932 25.1932 83.2727 25.5663 83.4318 25.8807C83.5947 26.1951 83.8239 26.4375 84.1193 26.608C84.4148 26.7784 84.7652 26.8636 85.1705 26.8636C85.4394 26.8636 85.6856 26.8258 85.9091 26.75C86.1326 26.6742 86.3239 26.5606 86.483 26.4091C86.642 26.2576 86.7633 26.072 86.8466 25.8523L89.0852 26C88.9716 26.5379 88.7386 27.0076 88.3864 27.4091C88.0379 27.8068 87.5871 28.1174 87.0341 28.3409C86.4848 28.5606 85.8504 28.6705 85.1307 28.6705ZM93.1364 23.4545V28.5H90.7159V19.7727H93.0227V21.3125H93.125C93.3182 20.8049 93.642 20.4034 94.0966 20.108C94.5511 19.8087 95.1023 19.6591 95.75 19.6591C96.3561 19.6591 96.8845 19.7917 97.3352 20.0568C97.786 20.322 98.1364 20.7008 98.3864 21.1932C98.6364 21.6818 98.7614 22.2652 98.7614 22.9432V28.5H96.3409V23.375C96.3447 22.8409 96.2083 22.4242 95.9318 22.125C95.6553 21.822 95.2746 21.6705 94.7898 21.6705C94.464 21.6705 94.1761 21.7405 93.9261 21.8807C93.6799 22.0208 93.4867 22.2254 93.3466 22.4943C93.2102 22.7595 93.1402 23.0795 93.1364 23.4545Z" fill="white"/>
<path d="M99.5369 18.892V16.8636H109.094V18.892H105.531V28.5H103.099V18.892H99.5369ZM111.923 28.6648C111.366 28.6648 110.87 28.5682 110.435 28.375C109.999 28.178 109.654 27.8883 109.401 27.5057C109.151 27.1193 109.026 26.6383 109.026 26.0625C109.026 25.5777 109.115 25.1705 109.293 24.8409C109.471 24.5114 109.713 24.2462 110.02 24.0455C110.327 23.8447 110.675 23.6932 111.065 23.5909C111.459 23.4886 111.872 23.4167 112.304 23.375C112.812 23.322 113.221 23.2727 113.531 23.2273C113.842 23.178 114.067 23.1061 114.207 23.0114C114.348 22.9167 114.418 22.7765 114.418 22.5909V22.5568C114.418 22.197 114.304 21.9186 114.077 21.7216C113.853 21.5246 113.535 21.4261 113.122 21.4261C112.687 21.4261 112.34 21.5227 112.082 21.7159C111.825 21.9053 111.654 22.1439 111.571 22.4318L109.332 22.25C109.446 21.7197 109.67 21.2614 110.003 20.875C110.336 20.4848 110.766 20.1856 111.293 19.9773C111.823 19.7652 112.437 19.6591 113.134 19.6591C113.618 19.6591 114.082 19.7159 114.526 19.8295C114.973 19.9432 115.368 20.1193 115.713 20.358C116.062 20.5966 116.336 20.9034 116.537 21.2784C116.738 21.6496 116.838 22.0947 116.838 22.6136V28.5H114.543V27.2898H114.474C114.334 27.5625 114.147 27.803 113.912 28.0114C113.677 28.2159 113.395 28.3769 113.065 28.4943C112.736 28.608 112.355 28.6648 111.923 28.6648ZM112.616 26.9943C112.973 26.9943 113.287 26.9242 113.56 26.7841C113.832 26.6402 114.046 26.447 114.202 26.2045C114.357 25.9621 114.435 25.6875 114.435 25.3807V24.4545C114.359 24.5038 114.255 24.5492 114.122 24.5909C113.993 24.6288 113.848 24.6648 113.685 24.6989C113.522 24.7292 113.359 24.7576 113.196 24.7841C113.033 24.8068 112.885 24.8277 112.753 24.8466C112.469 24.8883 112.221 24.9545 112.009 25.0455C111.796 25.1364 111.632 25.2595 111.514 25.4148C111.397 25.5663 111.338 25.7557 111.338 25.983C111.338 26.3125 111.457 26.5644 111.696 26.7386C111.938 26.9091 112.245 26.9943 112.616 26.9943ZM120.909 25.9886L120.915 23.0852H121.267L124.062 19.7727H126.841L123.085 24.1591H122.511L120.909 25.9886ZM118.716 28.5V16.8636H121.136V28.5H118.716ZM124.17 28.5L121.602 24.6989L123.216 22.9886L127.006 28.5H124.17ZM131.646 28.6705C130.749 28.6705 129.976 28.4886 129.328 28.125C128.684 27.7576 128.188 27.2386 127.839 26.5682C127.491 25.8939 127.317 25.0966 127.317 24.1761C127.317 23.2784 127.491 22.4905 127.839 21.8125C128.188 21.1345 128.679 20.6061 129.311 20.2273C129.947 19.8485 130.694 19.6591 131.55 19.6591C132.125 19.6591 132.661 19.7519 133.158 19.9375C133.658 20.1193 134.093 20.3939 134.464 20.7614C134.839 21.1288 135.131 21.5909 135.339 22.1477C135.548 22.7008 135.652 23.3485 135.652 24.0909V24.7557H128.283V23.2557H133.374C133.374 22.9072 133.298 22.5985 133.146 22.3295C132.995 22.0606 132.785 21.8504 132.516 21.6989C132.25 21.5436 131.942 21.4659 131.589 21.4659C131.222 21.4659 130.896 21.5511 130.612 21.7216C130.332 21.8883 130.112 22.1136 129.953 22.3977C129.794 22.678 129.713 22.9905 129.709 23.3352V24.7614C129.709 25.1932 129.788 25.5663 129.947 25.8807C130.11 26.1951 130.339 26.4375 130.635 26.608C130.93 26.7784 131.281 26.8636 131.686 26.8636C131.955 26.8636 132.201 26.8258 132.425 26.75C132.648 26.6742 132.839 26.5606 132.999 26.4091C133.158 26.2576 133.279 26.072 133.362 25.8523L135.601 26C135.487 26.5379 135.254 27.0076 134.902 27.4091C134.554 27.8068 134.103 28.1174 133.55 28.3409C133 28.5606 132.366 28.6705 131.646 28.6705ZM141.175 28.6705C140.292 28.6705 139.529 28.483 138.885 28.108C138.245 27.7292 137.75 27.2027 137.402 26.5284C137.054 25.8504 136.879 25.0644 136.879 24.1705C136.879 23.2689 137.054 22.4811 137.402 21.8068C137.75 21.1288 138.245 20.6023 138.885 20.2273C139.529 19.8485 140.292 19.6591 141.175 19.6591C142.057 19.6591 142.819 19.8485 143.459 20.2273C144.103 20.6023 144.599 21.1288 144.947 21.8068C145.296 22.4811 145.47 23.2689 145.47 24.1705C145.47 25.0644 145.296 25.8504 144.947 26.5284C144.599 27.2027 144.103 27.7292 143.459 28.108C142.819 28.483 142.057 28.6705 141.175 28.6705ZM141.186 26.7955C141.588 26.7955 141.923 26.6818 142.192 26.4545C142.461 26.2235 142.663 25.9091 142.8 25.5114C142.94 25.1136 143.01 24.661 143.01 24.1534C143.01 23.6458 142.94 23.1932 142.8 22.7955C142.663 22.3977 142.461 22.0833 142.192 21.8523C141.923 21.6212 141.588 21.5057 141.186 21.5057C140.781 21.5057 140.44 21.6212 140.163 21.8523C139.891 22.0833 139.684 22.3977 139.544 22.7955C139.408 23.1932 139.339 23.6458 139.339 24.1534C139.339 24.661 139.408 25.1136 139.544 25.5114C139.684 25.9091 139.891 26.2235 140.163 26.4545C140.44 26.6818 140.781 26.7955 141.186 26.7955ZM154.899 19.7727L151.848 28.5H149.121L146.07 19.7727H148.626L150.439 26.017H150.53L152.337 19.7727H154.899ZM159.834 28.6705C158.936 28.6705 158.163 28.4886 157.516 28.125C156.872 27.7576 156.375 27.2386 156.027 26.5682C155.679 25.8939 155.504 25.0966 155.504 24.1761C155.504 23.2784 155.679 22.4905 156.027 21.8125C156.375 21.1345 156.866 20.6061 157.499 20.2273C158.135 19.8485 158.881 19.6591 159.737 19.6591C160.313 19.6591 160.849 19.7519 161.345 19.9375C161.845 20.1193 162.281 20.3939 162.652 20.7614C163.027 21.1288 163.319 21.5909 163.527 22.1477C163.735 22.7008 163.839 23.3485 163.839 24.0909V24.7557H156.47V23.2557H161.561C161.561 22.9072 161.485 22.5985 161.334 22.3295C161.182 22.0606 160.972 21.8504 160.703 21.6989C160.438 21.5436 160.129 21.4659 159.777 21.4659C159.41 21.4659 159.084 21.5511 158.8 21.7216C158.519 21.8883 158.3 22.1136 158.141 22.3977C157.982 22.678 157.9 22.9905 157.896 23.3352V24.7614C157.896 25.1932 157.976 25.5663 158.135 25.8807C158.298 26.1951 158.527 26.4375 158.822 26.608C159.118 26.7784 159.468 26.8636 159.874 26.8636C160.143 26.8636 160.389 26.8258 160.612 26.75C160.836 26.6742 161.027 26.5606 161.186 26.4091C161.345 26.2576 161.466 26.072 161.55 25.8523L163.788 26C163.675 26.5379 163.442 27.0076 163.089 27.4091C162.741 27.8068 162.29 28.1174 161.737 28.3409C161.188 28.5606 160.554 28.6705 159.834 28.6705ZM165.419 28.5V19.7727H167.766V21.2955H167.857C168.016 20.7538 168.283 20.3447 168.658 20.0682C169.033 19.7879 169.464 19.6477 169.953 19.6477C170.074 19.6477 170.205 19.6553 170.345 19.6705C170.485 19.6856 170.608 19.7064 170.714 19.733V21.8807C170.601 21.8466 170.444 21.8163 170.243 21.7898C170.042 21.7633 169.858 21.75 169.692 21.75C169.336 21.75 169.018 21.8277 168.737 21.983C168.461 22.1345 168.241 22.3466 168.078 22.6193C167.919 22.892 167.839 23.2064 167.839 23.5625V28.5H165.419Z" fill="#00FF91"/>
</svg>
