<svg width="20" height="20" viewBox="0 0 20 20" fill="none" xmlns="http://www.w3.org/2000/svg">
<path d="M10.0001 18.3333C14.6025 18.3333 18.3334 14.6024 18.3334 10C18.3334 5.39763 14.6025 1.66667 10.0001 1.66667C5.39771 1.66667 1.66675 5.39763 1.66675 10C1.66675 14.6024 5.39771 18.3333 10.0001 18.3333Z" stroke="#00FF8C" stroke-width="1.5" stroke-linecap="round" stroke-linejoin="round"/>
<path d="M17.5 12.5H2.5M17.5 7.5H2.5M6.66667 10C6.66667 15 10 18.3333 10 18.3333C10 18.3333 13.3333 15 13.3333 10C13.3333 5.00001 10 1.66667 10 1.66667C10 1.66667 6.66667 5.00001 6.66667 10Z" stroke="#00FF8C" stroke-width="1.5" stroke-linecap="round" stroke-linejoin="round"/>
</svg>
