<svg width="16" height="16" viewBox="0 0 16 16" fill="none" xmlns="http://www.w3.org/2000/svg">
<path d="M7.2 6.4H8.8C9.9312 6.4 10.4968 6.4 10.848 6.752C11.2 7.1032 11.2 7.6688 11.2 8.8V13.6C11.2 12.4688 11.2 11.9032 11.552 11.552C11.9024 11.2 12.468 11.2 13.6 11.2C14.7312 11.2 15.2968 11.2 15.648 11.552C16 11.9032 16 12.4688 16 13.6V16H0C0 14.8688 4.76837e-08 14.3032 0.352 13.952C0.7024 13.6 1.268 13.6 2.4 13.6C3.5312 13.6 4.0968 13.6 4.448 13.952C4.8 14.3024 4.8 14.868 4.8 16V8.8C4.8 7.6688 4.8 7.1032 5.152 6.752C5.5024 6.4 6.068 6.4 7.2 6.4ZM7.3168 0.8184C7.6208 0.272 7.7728 0 8 0C8.2272 0 8.3792 0.272 8.6832 0.8184L8.7616 0.9592C8.848 1.1144 8.8912 1.1912 8.9584 1.2424C9.0264 1.2936 9.1104 1.3128 9.2784 1.3504L9.4304 1.3856C10.0208 1.5192 10.316 1.5856 10.3864 1.8112C10.4568 2.0376 10.2552 2.2728 9.8528 2.7432L9.7488 2.8648C9.6344 2.9984 9.5768 3.0648 9.5512 3.148C9.5256 3.2312 9.5344 3.32 9.5512 3.4984L9.5672 3.6608C9.628 4.2888 9.6584 4.6032 9.4752 4.7424C9.2912 4.8824 9.0144 4.7544 8.4616 4.5L8.3192 4.4344C8.1616 4.3624 8.0832 4.3256 8 4.3256C7.9168 4.3256 7.8384 4.3624 7.6808 4.4344L7.5384 4.5C6.9856 4.7544 6.7088 4.8824 6.5248 4.7424C6.3408 4.6032 6.372 4.2888 6.4328 3.6608L6.4488 3.4984C6.4656 3.32 6.4744 3.2312 6.4488 3.148C6.4232 3.0656 6.3656 2.9984 6.2512 2.8648L6.1472 2.7432C5.7448 2.2728 5.5432 2.0376 5.6136 1.8112C5.684 1.5856 5.9792 1.5192 6.5696 1.3856L6.7216 1.3504C6.8896 1.3128 6.9736 1.2944 7.0416 1.2424C7.1088 1.1912 7.152 1.1144 7.2384 0.9592L7.3168 0.8184Z" fill="#BD89FF"/>
</svg>
