<svg width="36" height="36" viewBox="0 0 36 36" fill="none" xmlns="http://www.w3.org/2000/svg">
<path d="M28.2924 34.1997L19.4324 25.339L16.7258 28.0435C13.9584 30.8156 12.5725 32.1994 11.0831 31.8731C9.59363 31.5446 8.91641 29.7063 7.56198 26.032L3.04646 13.7692C0.344343 6.43628 -1.01009 2.77095 0.879815 0.880902C2.76972 -1.00914 6.43704 0.340889 13.7717 3.04545L26.0336 7.55906C29.7076 8.91359 31.5458 9.59085 31.8743 11.0804C32.2005 12.5699 30.8168 13.9537 28.045 16.7235L25.3406 19.4303L34.2007 28.291C35.1186 29.2091 35.5776 29.6681 35.7891 30.1811C36.0703 30.8628 36.0703 31.6279 35.7891 32.3119C35.5776 32.8226 35.1186 33.2817 34.2007 34.1997C33.2827 35.1177 32.8237 35.5767 32.3107 35.7882C31.6286 36.0706 30.8623 36.0706 30.1801 35.7882C29.6694 35.5767 29.2127 35.1177 28.2924 34.1997Z" fill="#00FF91"/>
</svg>
