<svg width="30" height="30" viewBox="0 0 30 30" fill="none" xmlns="http://www.w3.org/2000/svg">
<path fill-rule="evenodd" clip-rule="evenodd" d="M15 30C7.929 30 4.3935 30 2.196 27.8025C0 25.608 0 22.071 0 15C0 7.929 0 4.3935 2.196 2.196C4.395 0 7.929 0 15 0C22.071 0 25.6065 0 27.8025 2.196C30 4.395 30 7.929 30 15C30 22.071 30 25.6065 27.8025 27.8025C25.608 30 22.071 30 15 30ZM15 23.625C15.2984 23.625 15.5845 23.5065 15.7955 23.2955C16.0065 23.0845 16.125 22.7984 16.125 22.5V13.5C16.125 13.2016 16.0065 12.9155 15.7955 12.7045C15.5845 12.4935 15.2984 12.375 15 12.375C14.7016 12.375 14.4155 12.4935 14.2045 12.7045C13.9935 12.9155 13.875 13.2016 13.875 13.5V22.5C13.875 23.121 14.379 23.625 15 23.625ZM15 7.5C15.3978 7.5 15.7794 7.65804 16.0607 7.93934C16.342 8.22064 16.5 8.60218 16.5 9C16.5 9.39782 16.342 9.77936 16.0607 10.0607C15.7794 10.342 15.3978 10.5 15 10.5C14.6022 10.5 14.2206 10.342 13.9393 10.0607C13.658 9.77936 13.5 9.39782 13.5 9C13.5 8.60218 13.658 8.22064 13.9393 7.93934C14.2206 7.65804 14.6022 7.5 15 7.5Z" fill="#00FF91"/>
</svg>
