<svg width="36" height="36" viewBox="0 0 36 36" fill="none" xmlns="http://www.w3.org/2000/svg">
<path d="M20.4681 35.6316C26.2604 34.4727 33.75 30.3093 33.75 19.5444C33.75 9.74947 26.5736 3.22571 21.4131 0.228561C20.2661 -0.437884 18.9265 0.437751 18.9265 1.76138V5.14544C18.9265 7.81493 17.8036 12.6874 14.6832 14.7145C13.0897 15.7493 11.3665 14.1998 11.1738 12.3116L11.0144 10.7602C10.8291 8.95714 8.991 7.86306 7.54941 8.96269C4.95715 10.9343 2.25 14.3961 2.25 19.5425C2.25 32.7066 12.0502 36 16.9494 36C17.2347 36 17.5349 35.9889 17.8462 35.9722C15.4263 35.7667 11.5147 34.2672 11.5147 29.417C11.5147 25.622 14.2849 23.058 16.3898 21.8084C16.9568 21.4752 17.6183 21.9102 17.6183 22.5674V23.6597C17.6183 24.4927 17.9426 25.7978 18.7115 26.6901C19.5824 27.7009 20.8591 26.642 20.961 25.3128C20.9944 24.8944 21.4168 24.6279 21.78 24.8389C22.9677 25.5331 24.4853 27.0141 24.4853 29.417C24.4853 33.2083 22.3933 34.9522 20.4681 35.6316Z" fill="#FF8A00"/>
</svg>
