<svg width="36" height="36" viewBox="0 0 36 36" fill="none" xmlns="http://www.w3.org/2000/svg">
<path fill-rule="evenodd" clip-rule="evenodd" d="M21.3409 5.99941C21.3409 2.68742 24.1203 1.72831e-05 27.5445 1.72831e-05C28.3575 -0.00187602 29.1629 0.151801 29.9147 0.452275C30.6665 0.752749 31.3501 1.19413 31.9263 1.75123C32.5025 2.30833 32.9602 2.97022 33.2731 3.69913C33.586 4.42803 33.7481 5.20967 33.75 5.99941C33.75 9.31321 30.9706 12.0006 27.5445 12.0006C26.7229 12.0016 25.9093 11.8439 25.1509 11.5368C24.3926 11.2296 23.7046 10.7791 23.1271 10.2114L14.5387 15.8922C14.7779 17.0496 14.6606 18.2498 14.2015 19.3428L23.6181 25.3548C24.7272 24.4761 26.1151 23.9972 27.5464 23.9994C28.3593 23.9977 29.1647 24.1517 29.9164 24.4523C30.6682 24.753 31.3516 25.1946 31.9276 25.7519C32.5037 26.3091 32.9611 26.9712 33.2738 27.7002C33.5865 28.4292 33.7483 29.2108 33.75 30.0006C33.75 33.3126 30.9706 36 27.5445 36C25.9029 36.0033 24.3272 35.3732 23.1639 34.2481C22.0005 33.1231 21.3448 31.5952 21.3409 30.0006C21.3394 29.1593 21.5219 28.3274 21.8764 27.5598L12.5338 21.6C11.4024 22.5556 9.9529 23.0806 8.45365 23.0778C7.64061 23.0797 6.83515 22.9259 6.0833 22.6253C5.33145 22.3247 4.64794 21.8832 4.07183 21.3258C3.49572 20.7685 3.0383 20.1064 2.7257 19.3773C2.4131 18.6482 2.25146 17.8664 2.25 17.0766C2.2517 16.2869 2.41353 15.5053 2.72623 14.7765C3.03894 14.0476 3.4964 13.3856 4.07249 12.8285C4.64857 12.2714 5.332 11.83 6.08373 11.5295C6.83546 11.229 7.64076 11.0753 8.45365 11.0772C10.4252 11.0772 12.1781 11.9646 13.3139 13.347L21.6392 7.84081C21.4411 7.24597 21.3404 6.6246 21.3409 5.99941Z" fill="#00D1FF"/>
</svg>
