<svg width="31" height="31" viewBox="0 0 31 31" fill="none" xmlns="http://www.w3.org/2000/svg">
<path fill-rule="evenodd" clip-rule="evenodd" d="M15 11C13.6739 11 12.4021 11.5268 11.4645 12.4645C10.5268 13.4021 10 14.6739 10 16C10 17.3261 10.5268 18.5979 11.4645 19.5355C12.4021 20.4732 13.6739 21 15 21C16.3261 21 17.5979 20.4732 18.5355 19.5355C19.4732 18.5979 20 17.3261 20 16C20 14.6739 19.4732 13.4021 18.5355 12.4645C17.5979 11.5268 16.3261 11 15 11ZM12 16C12 15.2044 12.3161 14.4413 12.8787 13.8787C13.4413 13.3161 14.2044 13 15 13C15.7956 13 16.5587 13.3161 17.1213 13.8787C17.6839 14.4413 18 15.2044 18 16C18 16.7956 17.6839 17.5587 17.1213 18.1213C16.5587 18.6839 15.7956 19 15 19C14.2044 19 13.4413 18.6839 12.8787 18.1213C12.3161 17.5587 12 16.7956 12 16Z" fill="white"/>
<path fill-rule="evenodd" clip-rule="evenodd" d="M15 4C8.7014 4 4.45814 7.70834 1.99535 10.853L1.95209 10.9093C1.39395 11.621 0.88186 12.2752 0.534419 13.0487C0.16186 13.8784 0 14.7822 0 16C0 17.2178 0.16186 18.1216 0.534419 18.9513C0.883256 19.7248 1.39535 20.3803 1.95209 21.0907L1.99674 21.147C4.45814 24.2917 8.7014 28 15 28C21.2986 28 25.5419 24.2917 28.0047 21.147L28.0479 21.0907C28.606 20.3803 29.1181 19.7248 29.4656 18.9513C29.8381 18.1216 30 17.2178 30 16C30 14.7822 29.8381 13.8784 29.4656 13.0487C29.1167 12.2752 28.6047 11.621 28.0479 10.9093L28.0033 10.853C25.5419 7.70834 21.2986 4 15 4ZM3.65581 12.1079C5.92744 9.20457 9.62791 6.05714 15 6.05714C20.3721 6.05714 24.0712 9.20457 26.3442 12.1079C26.9581 12.8896 27.3153 13.3559 27.5512 13.8798C27.7716 14.3707 27.907 14.9701 27.907 16C27.907 17.0299 27.7716 17.6293 27.5512 18.1202C27.3153 18.6441 26.9567 19.1104 26.3456 19.8921C24.0698 22.7954 20.3721 25.9429 15 25.9429C9.62791 25.9429 5.92884 22.7954 3.65581 19.8921C3.04186 19.1104 2.68465 18.6441 2.44884 18.1202C2.22837 17.6293 2.09302 17.0299 2.09302 16C2.09302 14.9701 2.22837 14.3707 2.44884 13.8798C2.68465 13.3559 3.04465 12.8896 3.65581 12.1079Z" fill="white"/>
</svg>
