<svg width="31" height="31" viewBox="0 0 31 31" fill="none" xmlns="http://www.w3.org/2000/svg">
<path fill-rule="evenodd" clip-rule="evenodd" d="M29.3651 8.08229C29.4916 8.13518 29.6062 8.21194 29.7023 8.30817C29.7985 8.4044 29.8742 8.51822 29.9253 8.64311C29.9764 8.76799 30.0017 8.9015 29.9999 9.03597C29.9981 9.17045 29.9692 9.30326 29.9148 9.4268L28.9534 9.02317L29.9162 9.4268L29.9134 9.43225L29.9092 9.4418L29.8953 9.47452L29.8408 9.58906C29.5364 10.207 29.1978 10.8084 28.8265 11.3904C28.0822 12.5602 27.2192 13.6539 26.2508 14.6548L27.6014 15.9761C27.7863 16.17 27.8869 16.4264 27.8821 16.6914C27.8773 16.9563 27.7675 17.2091 27.5758 17.3965C27.384 17.5839 27.1254 17.6912 26.8543 17.6959C26.5832 17.7005 26.3208 17.6022 26.1224 17.4215L24.7257 16.0579C23.7541 16.8583 22.6891 17.5435 21.5528 18.0992L22.856 20.056C23.0074 20.2835 23.0601 20.5604 23.0025 20.8258C22.9449 21.0913 22.7818 21.3235 22.5491 21.4714C22.3163 21.6193 22.0329 21.6708 21.7613 21.6146C21.4897 21.5583 21.2521 21.3989 21.1008 21.1714L19.5813 18.8888C18.493 19.2365 17.3167 19.4724 16.0484 19.5569V21.9773C16.0484 22.2485 15.9382 22.5087 15.7419 22.7005C15.5457 22.8923 15.2795 23 15.0019 23C14.7244 23 14.4582 22.8923 14.262 22.7005C14.0657 22.5087 13.9555 22.2485 13.9555 21.9773V19.5569C12.7894 19.4802 11.637 19.2668 10.5231 18.9215L9.02452 21.1714C8.94958 21.2841 8.85267 21.3812 8.73933 21.4572C8.62599 21.5332 8.49843 21.5867 8.36394 21.6146C8.22945 21.6424 8.09067 21.6441 7.95551 21.6196C7.82035 21.595 7.69147 21.5447 7.57621 21.4714C7.34345 21.3235 7.18034 21.0913 7.12278 20.8258C7.09427 20.6944 7.09254 20.5588 7.11767 20.4267C7.1428 20.2946 7.19431 20.1686 7.26925 20.056L8.54315 18.1442C7.39781 17.5937 6.32376 16.9117 5.34375 16.1125L4.00427 17.4215C3.807 17.6079 3.54271 17.7111 3.26832 17.7089C2.99394 17.7067 2.73142 17.5993 2.5373 17.4098C2.34319 17.2202 2.23301 16.9638 2.2305 16.6956C2.22798 16.4275 2.33334 16.1691 2.52387 15.9761L3.81312 14.7162C2.44293 13.3129 1.2835 11.7267 0.369544 10.005C0.278032 9.83056 0.190571 9.65416 0.107229 9.47589L0.0932762 9.4418L0.0876951 9.43225V9.42816H0.0849044C-0.0246315 9.1788 -0.0283223 8.89577 0.0746439 8.64376C0.17761 8.39174 0.378799 8.19002 0.633951 8.08298C0.889103 7.97593 1.17732 7.97232 1.43519 8.07295C1.69306 8.17358 1.89947 8.37019 2.00901 8.61955V8.62228L2.01878 8.64137L2.05924 8.72727C2.3316 9.2779 2.63436 9.81368 2.96618 10.3322C3.62894 11.3686 4.63634 12.7144 6.00791 13.9621C7.21762 15.0598 8.69803 16.0702 10.4686 16.7357C11.915 17.2774 13.4516 17.552 15.0005 17.5456C16.5817 17.5523 18.1498 17.2659 19.6217 16.7016C21.3826 16.0239 22.8532 15.0066 24.0518 13.9076C25.6542 12.4205 26.9721 10.6657 27.9433 8.72591L27.9823 8.64L27.9907 8.62228M29.3651 8.08229C29.1101 7.9758 28.8223 7.97392 28.5648 8.07466C28.3074 8.17539 28.1014 8.37186 27.9921 8.62091L29.3651 8.08229Z" fill="white"/>
</svg>
