<svg width="31" height="29" viewBox="0 0 31 29" fill="none" xmlns="http://www.w3.org/2000/svg">
<path d="M15.5585 24.579L15.959 24.447C19.406 23.2965 21.1294 22.722 21.4489 21.363C21.7715 20.004 20.486 18.7185 17.9165 16.1505L15.383 13.6155L15.3755 13.638L15.2525 14.0385C15.1505 14.3835 15.0125 14.8635 14.8759 15.4125C14.5955 16.5375 14.3405 17.8455 14.3405 18.8325C14.3405 19.8195 14.5955 21.129 14.8759 22.2525C15.0344 22.8844 15.2125 23.5112 15.41 24.132L15.4174 24.1575L15.4205 24.1635L15.5585 24.579ZM7.20795 27.3615C3.81495 28.4805 2.02695 28.9485 1.03845 27.96C-0.0565493 26.865 0.634951 24.7905 2.01795 20.643L4.55295 13.0395C5.50095 10.1955 6.05745 8.52448 6.98595 7.84798L6.97845 7.88548C6.90429 8.24948 6.83528 8.61452 6.77145 8.98048C6.59785 9.94691 6.44283 10.9166 6.30645 11.889C5.98245 14.1885 5.68395 17.127 5.83845 19.4745C5.93145 20.8965 6.22695 22.659 6.49095 24.0345C6.63553 24.7883 6.79155 25.5399 6.95895 26.289L6.98895 26.4285L7.20795 27.3615ZM9.27495 7.88848L9.19995 8.25598V8.26048L9.19545 8.27398L9.18495 8.32948C9.11337 8.67849 9.04686 9.02853 8.98545 9.37948C8.81692 10.317 8.66639 11.2577 8.53395 12.201C8.21445 14.4735 7.94445 17.2215 8.08395 19.3275C8.16645 20.6025 8.43945 22.2525 8.69895 23.613C8.83939 24.3427 8.99091 25.0703 9.15345 25.7955L9.18345 25.9275L9.19095 25.9605L9.35145 26.649L13.424 25.2915L13.2695 24.828C13.2083 24.6441 13.1508 24.4591 13.097 24.273C12.9875 23.9025 12.8405 23.388 12.692 22.7985C12.404 21.6435 12.0905 20.1105 12.0905 18.8325C12.0905 17.5545 12.4055 16.0215 12.692 14.868C12.863 14.1851 13.0556 13.5077 13.2695 12.837L13.2845 12.7965L13.6025 11.8365L12.848 11.082C11.285 9.51598 10.1945 8.42698 9.27495 7.88848ZM12.389 0.539977C12.5151 0.616878 12.6249 0.717886 12.7121 0.837233C12.7992 0.95658 12.862 1.09193 12.8968 1.23554C12.9317 1.37915 12.9378 1.52822 12.915 1.67423C12.8922 1.82023 12.8409 1.96032 12.764 2.08648C12.6491 2.27323 12.6006 2.49322 12.6262 2.71095C12.6517 2.92868 12.75 3.13143 12.905 3.28648L13.052 3.43348C13.9355 4.31548 14.261 5.61298 13.8995 6.80848C13.8567 6.94991 13.7865 7.08154 13.6929 7.19585C13.5993 7.31016 13.4841 7.40491 13.3538 7.4747C13.2236 7.54448 13.0809 7.58793 12.9339 7.60256C12.7869 7.61719 12.6384 7.60272 12.497 7.55998C12.3555 7.51723 12.2239 7.44705 12.1096 7.35343C11.9953 7.25982 11.9005 7.1446 11.8307 7.01437C11.761 6.88413 11.7175 6.74143 11.7029 6.59441C11.6882 6.44738 11.7027 6.29891 11.7455 6.15748C11.8051 5.96037 11.8101 5.75076 11.7599 5.55103C11.7097 5.35131 11.6062 5.16897 11.4605 5.02348L11.3134 4.87648C10.8016 4.36462 10.4768 3.69543 10.3913 2.97658C10.3059 2.25774 10.4648 1.53106 10.8425 0.913478C10.998 0.658874 11.2483 0.476489 11.5383 0.406445C11.8284 0.3364 12.1343 0.384433 12.389 0.539977ZM16.3415 3.59548C16.643 3.29398 16.7945 3.14248 16.9685 3.08698C17.1158 3.04029 17.2741 3.04029 17.4215 3.08698C17.5955 3.14248 17.747 3.29398 18.0485 3.59548C18.3485 3.89548 18.5 4.04698 18.5555 4.22098C18.6025 4.36883 18.6025 4.52762 18.5555 4.67548C18.5 4.84948 18.35 4.99948 18.0485 5.30098C17.747 5.60248 17.5955 5.75398 17.4215 5.80948C17.2741 5.85617 17.1158 5.85617 16.9685 5.80948C16.7945 5.75398 16.643 5.60248 16.3415 5.30098C16.04 5.00098 15.8885 4.84948 15.8344 4.67548C15.7874 4.52762 15.7874 4.36883 15.8344 4.22098C15.8885 4.04698 16.04 3.89698 16.3415 3.59548ZM6.39045 2.90998C6.4653 2.83522 6.55415 2.77594 6.65191 2.73552C6.74968 2.6951 6.85444 2.67434 6.96023 2.67441C7.06602 2.67448 7.17076 2.69538 7.26847 2.73593C7.36618 2.77648 7.45495 2.83587 7.5297 2.91073C7.60446 2.98558 7.66374 3.07443 7.70415 3.17219C7.74457 3.26995 7.76534 3.37472 7.76527 3.48051C7.7652 3.5863 7.7443 3.69104 7.70375 3.78875C7.6632 3.88646 7.6038 3.97522 7.52895 4.04998C7.37778 4.20095 7.17282 4.28569 6.95917 4.28555C6.74552 4.28541 6.54068 4.2004 6.3897 4.04923C6.23873 3.89805 6.15399 3.6931 6.15413 3.47945C6.15427 3.2658 6.23928 3.06095 6.39045 2.90998ZM25.9625 7.57048C25.754 7.64998 25.5709 7.83448 25.202 8.20198C24.8344 8.57098 24.65 8.75398 24.5704 8.96248C24.477 9.20529 24.477 9.47416 24.5704 9.71698C24.65 9.92398 24.8344 10.1085 25.202 10.4775C25.5709 10.845 25.754 11.0295 25.9625 11.109C26.2053 11.2025 26.4741 11.2025 26.7169 11.109C26.924 11.0295 27.1084 10.845 27.4775 10.4775C27.8449 10.1085 28.0294 9.92398 28.1089 9.71698C28.2024 9.47416 28.2024 9.20529 28.1089 8.96248C28.0294 8.75398 27.8449 8.57098 27.4775 8.20198C27.1084 7.83448 26.924 7.64998 26.7169 7.57048C26.4741 7.477 26.2053 7.477 25.9625 7.57048ZM24.587 19.9695C24.6617 19.8947 24.7505 19.8354 24.8481 19.795C24.9458 19.7545 25.0505 19.7337 25.1562 19.7337C25.2619 19.7337 25.3666 19.7545 25.4643 19.795C25.5619 19.8354 25.6507 19.8947 25.7254 19.9695C25.8002 20.0442 25.8595 20.133 25.9 20.2307C25.9404 20.3283 25.9612 20.433 25.9612 20.5387C25.9612 20.6444 25.9404 20.7491 25.9 20.8468C25.8595 20.9445 25.8002 21.0332 25.7254 21.108C25.5745 21.259 25.3697 21.3438 25.1562 21.3438C24.9427 21.3438 24.7379 21.259 24.587 21.108C24.436 20.957 24.3512 20.7522 24.3512 20.5387C24.3512 20.3252 24.436 20.1205 24.587 19.9695ZM22.535 4.08298C22.8273 4.14162 23.0843 4.3139 23.2497 4.56196C23.4151 4.81003 23.4752 5.1136 23.417 5.40598L23.201 6.48598C23.0545 7.21617 22.7179 7.89476 22.2251 8.45314C21.7323 9.01152 21.1008 9.4299 20.3945 9.66598C20.0642 9.7755 19.7688 9.97064 19.5385 10.2315C19.3082 10.4924 19.1512 10.8096 19.0835 11.151L18.8675 12.231C18.8088 12.5236 18.6363 12.7809 18.3879 12.9463C18.2649 13.0282 18.127 13.0851 17.982 13.1137C17.837 13.1423 17.6878 13.142 17.543 13.113C17.3981 13.0839 17.2603 13.0266 17.1376 12.9443C17.0149 12.862 16.9095 12.7564 16.8276 12.6334C16.6622 12.385 16.6023 12.0811 16.661 11.7885L16.877 10.7085C17.174 9.22348 18.245 8.00848 19.682 7.52998C20.354 7.30498 20.855 6.73948 20.9945 6.04498L21.2104 4.96498C21.2691 4.67266 21.4414 4.41558 21.6894 4.2502C21.9375 4.08483 22.2411 4.02468 22.5334 4.08298M28.1119 15.84C27.8462 15.7237 27.5527 15.6859 27.2662 15.7311C26.9796 15.7763 26.712 15.9026 26.4949 16.095C25.9031 16.6196 25.1612 16.9448 24.3743 17.0244C23.5875 17.1041 22.7955 16.9343 22.1105 16.539L21.791 16.3545C21.5347 16.2042 21.3482 15.9587 21.2723 15.6715C21.1963 15.3843 21.2371 15.0787 21.3856 14.8214C21.5342 14.5642 21.7785 14.3761 22.0652 14.2983C22.3519 14.2204 22.6577 14.2591 22.916 14.406L23.2355 14.5905C23.801 14.9175 24.5134 14.8455 25.0024 14.4105C25.5409 13.9331 26.2047 13.6199 26.9154 13.5077C27.6262 13.3956 28.3542 13.4892 29.0135 13.7775L29.4515 13.9695C29.7188 14.0929 29.927 14.3162 30.0315 14.5914C30.1361 14.8667 30.1285 15.1719 30.0105 15.4417C29.8925 15.7114 29.6735 15.9242 29.4004 16.0343C29.1274 16.1443 28.822 16.143 28.5499 16.0305L28.1119 15.84ZM22.25 11.613C22.4007 11.462 22.6053 11.3771 22.8187 11.377C23.032 11.3768 23.2367 11.4615 23.3877 11.6122C23.5387 11.763 23.6236 11.9676 23.6237 12.1809C23.6239 12.3943 23.5392 12.599 23.3885 12.75C23.2377 12.901 23.0331 12.9858 22.8197 12.986C22.6064 12.9861 22.4017 12.9015 22.2507 12.7507C22.0997 12.6 22.0148 12.3954 22.0147 12.182C22.0145 11.9686 22.0992 11.764 22.25 11.613Z" fill="#00FF91"/>
</svg>
