<svg width="20" height="18" viewBox="0 0 20 18" fill="none" xmlns="http://www.w3.org/2000/svg">
<path d="M9.98761 11.84L12.6893 14.9117C13.6893 16.0492 14.1901 16.6183 14.7143 16.4792C15.2376 16.3408 15.4176 15.5925 15.7768 14.095L17.7684 5.78833C18.3226 3.48167 18.5993 2.32917 17.9843 1.76C17.3693 1.19083 16.3034 1.61417 14.1718 2.46L4.28344 6.3875C2.57844 7.065 1.72594 7.40333 1.67178 7.985C1.6654 8.04427 1.6654 8.10406 1.67178 8.16333C1.72428 8.74583 2.57511 9.08667 4.27844 9.76917C5.04928 10.0783 5.43511 10.2333 5.71178 10.5292C5.74289 10.5625 5.77289 10.5969 5.80178 10.6325C6.05678 10.9492 6.16511 11.3658 6.38261 12.1958L6.79011 13.7517C7.00094 14.56 7.10678 14.965 7.38428 15.02C7.66178 15.075 7.90261 14.74 8.38511 14.0692L9.98761 11.84ZM9.98761 11.84L9.72344 11.565C9.42178 11.25 9.27094 11.0933 9.27094 10.8983C9.27094 10.7033 9.42094 10.5458 9.72344 10.2317L12.7009 7.12833" stroke="#00FF8C" stroke-width="1.5" stroke-linecap="round" stroke-linejoin="round"/>
</svg>
