<svg width="19" height="19" viewBox="0 0 19 19" fill="none" xmlns="http://www.w3.org/2000/svg">
<path d="M13.2146 6.03583L13.2142 6.03539C12.9915 5.81301 12.6897 5.68811 12.375 5.68811C12.0603 5.68811 11.7585 5.81301 11.5358 6.03539L11.5356 6.03561L9.48686 8.08436L7.79167 9.77956L6.80311 8.791C6.69576 8.67773 6.5671 8.5867 6.42449 8.52315C6.27883 8.45825 6.12158 8.42335 5.96213 8.42054C5.80269 8.41772 5.64431 8.44705 5.49644 8.50678C5.34858 8.5665 5.21426 8.6554 5.10149 8.76816C4.98873 8.88092 4.89984 9.01524 4.84011 9.16311C4.78039 9.31097 4.75106 9.46935 4.75387 9.6288C4.75668 9.78825 4.79158 9.94549 4.85649 10.0912C4.92003 10.2338 5.01106 10.3624 5.12434 10.4698L6.95228 12.2977L6.9525 12.2979C7.17516 12.5203 7.47698 12.6452 7.79167 12.6452C8.10635 12.6452 8.40818 12.5203 8.63083 12.2979L8.63105 12.2977L13.2144 7.71439L13.2146 7.71417C13.437 7.49151 13.5619 7.18969 13.5619 6.875C13.5619 6.56031 13.437 6.25849 13.2146 6.03583ZM17.8333 9.16667C17.8333 13.9533 13.9533 17.8333 9.16667 17.8333C4.38006 17.8333 0.5 13.9533 0.5 9.16667C0.5 4.38006 4.38006 0.5 9.16667 0.5C13.9533 0.5 17.8333 4.38006 17.8333 9.16667Z" stroke="black" stroke-opacity="0.01"/>
</svg>
