<svg width="30" height="32" viewBox="0 0 30 32" fill="none" xmlns="http://www.w3.org/2000/svg">
<path fill-rule="evenodd" clip-rule="evenodd" d="M4.875 14.0825V11C4.875 8.31468 5.94174 5.73935 7.84054 3.84054C9.73935 1.94174 12.3147 0.875 15 0.875C17.6853 0.875 20.2606 1.94174 22.1595 3.84054C24.0583 5.73935 25.125 8.31468 25.125 11V14.0825C26.7975 14.207 27.885 14.522 28.6815 15.3185C30 16.6355 30 18.758 30 23C30 27.242 30 29.3645 28.6815 30.6815C27.3645 32 25.242 32 21 32H9C4.758 32 2.6355 32 1.3185 30.6815C-8.9407e-08 29.3645 0 27.242 0 23C0 18.758 -8.9407e-08 16.6355 1.3185 15.3185C2.1135 14.522 3.2025 14.207 4.875 14.0825ZM7.125 11C7.125 8.91142 7.95468 6.90838 9.43153 5.43153C10.9084 3.95468 12.9114 3.125 15 3.125C17.0886 3.125 19.0916 3.95468 20.5685 5.43153C22.0453 6.90838 22.875 8.91142 22.875 11V14.006C22.3005 14 21.6765 14 21 14H9C8.322 14 7.6995 14 7.125 14.006V11ZM9 24.5C9.39782 24.5 9.77936 24.342 10.0607 24.0607C10.342 23.7794 10.5 23.3978 10.5 23C10.5 22.6022 10.342 22.2206 10.0607 21.9393C9.77936 21.658 9.39782 21.5 9 21.5C8.60218 21.5 8.22064 21.658 7.93934 21.9393C7.65804 22.2206 7.5 22.6022 7.5 23C7.5 23.3978 7.65804 23.7794 7.93934 24.0607C8.22064 24.342 8.60218 24.5 9 24.5ZM15 24.5C15.3978 24.5 15.7794 24.342 16.0607 24.0607C16.342 23.7794 16.5 23.3978 16.5 23C16.5 22.6022 16.342 22.2206 16.0607 21.9393C15.7794 21.658 15.3978 21.5 15 21.5C14.6022 21.5 14.2206 21.658 13.9393 21.9393C13.658 22.2206 13.5 22.6022 13.5 23C13.5 23.3978 13.658 23.7794 13.9393 24.0607C14.2206 24.342 14.6022 24.5 15 24.5ZM22.5 23C22.5 23.3978 22.342 23.7794 22.0607 24.0607C21.7794 24.342 21.3978 24.5 21 24.5C20.6022 24.5 20.2206 24.342 19.9393 24.0607C19.658 23.7794 19.5 23.3978 19.5 23C19.5 22.6022 19.658 22.2206 19.9393 21.9393C20.2206 21.658 20.6022 21.5 21 21.5C21.3978 21.5 21.7794 21.658 22.0607 21.9393C22.342 22.2206 22.5 22.6022 22.5 23Z" fill="#00FF91"/>
</svg>
