<svg width="20" height="20" viewBox="0 0 20 20" fill="none" xmlns="http://www.w3.org/2000/svg">
<g clip-path="url(#clip0_477_39)">
<path d="M10 18.3333C14.6024 18.3333 18.3333 14.6024 18.3333 9.99999C18.3333 5.39762 14.6024 1.66666 10 1.66666C5.39763 1.66666 1.66667 5.39762 1.66667 9.99999C1.66667 14.6024 5.39763 18.3333 10 18.3333Z" stroke="#00FF8C" stroke-width="1.5" stroke-linecap="round" stroke-linejoin="round"/>
<path d="M17.5 12.5H2.5M17.5 7.49999H2.5M6.66667 9.99999C6.66667 15 10 18.3333 10 18.3333C10 18.3333 13.3333 15 13.3333 9.99999C13.3333 4.99999 10 1.66666 10 1.66666C10 1.66666 6.66667 4.99999 6.66667 9.99999Z" stroke="#00FF8C" stroke-width="1.5" stroke-linecap="round" stroke-linejoin="round"/>
</g>
<defs>
<clipPath id="clip0_477_39">
<rect width="20" height="20" fill="white"/>
</clipPath>
</defs>
</svg>
